<?xml version="1.0" encoding="UTF-8"?>
<!DOCTYPE svg PUBLIC "-//W3C//DTD SVG 1.1//EN" "http://www.w3.org/Graphics/SVG/1.1/DTD/svg11.dtd">
<svg xmlns="http://www.w3.org/2000/svg" version="1.1" width="310px" height="310px" style="shape-rendering:geometricPrecision; text-rendering:geometricPrecision; image-rendering:optimizeQuality; fill-rule:evenodd; clip-rule:evenodd" xmlns:xlink="http://www.w3.org/1999/xlink">
<g><path style="opacity:0.914" fill="#e19382" d="M 133.5,-0.5 C 147.833,-0.5 162.167,-0.5 176.5,-0.5C 230.284,9.04409 269.617,38.0441 294.5,86.5C 294.631,87.2389 294.464,87.9056 294,88.5C 292.078,84.0489 289.578,80.0489 286.5,76.5C 284.913,72.3171 282.579,68.6505 279.5,65.5C 275.894,59.5622 271.561,54.2288 266.5,49.5C 264.5,46.8333 262.167,44.5 259.5,42.5C 255.485,38.4874 251.152,34.8207 246.5,31.5C 237.122,24.8089 227.122,19.1423 216.5,14.5C 180.278,-0.706856 143.278,-2.54019 105.5,9C 103.121,9.71618 101.121,10.8828 99.5,12.5C 86.0321,16.2319 74.0321,22.5652 63.5,31.5C 58.9568,33.3717 55.2901,36.3717 52.5,40.5C 49.2157,42.117 46.5491,44.4503 44.5,47.5C 38.7763,52.8909 33.7763,58.8909 29.5,65.5C 26.3504,69.1189 23.6837,73.1189 21.5,77.5C 18.4009,81.9293 15.7342,86.596 13.5,91.5C 12.678,93.3885 11.8447,95.3885 11,97.5C 10.5357,96.9056 10.369,96.2389 10.5,95.5C 27.2593,55.5738 55.5927,27.0738 95.5,10C 107.942,5.22595 120.608,1.72595 133.5,-0.5 Z"/></g>
<g><path style="opacity:0.755" fill="#b18cb6" d="M 216.5,14.5 C 209.532,15.8307 202.198,16.4974 194.5,16.5C 165.999,16.4186 137.499,16.4186 109,16.5C 103.5,16.3333 98,16.1667 92.5,16C 94.9252,14.7874 97.2585,13.6207 99.5,12.5C 101.121,10.8828 103.121,9.71618 105.5,9C 143.278,-2.54019 180.278,-0.706856 216.5,14.5 Z"/></g>
<g><path style="opacity:0.863" fill="#b790b0" d="M 99.5,12.5 C 97.2585,13.6207 94.9252,14.7874 92.5,16C 98,16.1667 103.5,16.3333 109,16.5C 137.499,16.4186 165.999,16.4186 194.5,16.5C 202.198,16.4974 209.532,15.8307 216.5,14.5C 227.122,19.1423 237.122,24.8089 246.5,31.5C 246.414,32.4959 246.748,33.3292 247.5,34C 185.831,34.8333 124.164,34.6666 62.5,33.5C 62.8627,32.8165 63.1961,32.1499 63.5,31.5C 74.0321,22.5652 86.0321,16.2319 99.5,12.5 Z"/></g>
<g><path style="opacity:0.946" fill="#bc93aa" d="M 63.5,31.5 C 63.1961,32.1499 62.8627,32.8165 62.5,33.5C 124.164,34.6666 185.831,34.8333 247.5,34C 246.748,33.3292 246.414,32.4959 246.5,31.5C 251.152,34.8207 255.485,38.4874 259.5,42.5C 260.171,43.8471 260.171,45.0138 259.5,46C 189.498,46.8333 119.498,46.6666 49.5,45.5C 50.9524,44.0603 51.9524,42.3936 52.5,40.5C 55.2901,36.3717 58.9568,33.3717 63.5,31.5 Z"/></g>
<g><path style="opacity:0.981" fill="#c095a6" d="M 52.5,40.5 C 51.9524,42.3936 50.9524,44.0603 49.5,45.5C 119.498,46.6666 189.498,46.8333 259.5,46C 260.171,45.0138 260.171,43.8471 259.5,42.5C 262.167,44.5 264.5,46.8333 266.5,49.5C 266.389,50.1174 266.056,50.6174 265.5,51C 191.167,51.6667 116.833,51.6667 42.5,51C 43.8228,50.1841 44.4894,49.0174 44.5,47.5C 46.5491,44.4503 49.2157,42.117 52.5,40.5 Z"/></g>
<g><path style="opacity:0.989" fill="#c397a2" d="M 44.5,47.5 C 44.4894,49.0174 43.8228,50.1841 42.5,51C 116.833,51.6667 191.167,51.6667 265.5,51C 266.056,50.6174 266.389,50.1174 266.5,49.5C 271.561,54.2288 275.894,59.5622 279.5,65.5C 279.631,66.2389 279.464,66.9056 279,67.5C 252.729,66.5265 226.562,66.1932 200.5,66.5C 179.096,56.426 156.762,53.5926 133.5,58C 124.955,60.2757 116.622,63.109 108.5,66.5C 82.259,66.1719 56.0924,66.5052 30,67.5C 29.5357,66.9056 29.369,66.2389 29.5,65.5C 33.7763,58.8909 38.7763,52.8909 44.5,47.5 Z"/></g>
<g><path style="opacity:0.989" fill="#ca9b9b" d="M 29.5,65.5 C 29.369,66.2389 29.5357,66.9056 30,67.5C 56.0924,66.5052 82.259,66.1719 108.5,66.5C 102.001,70.5833 95.6681,74.9167 89.5,79.5C 66.4754,80.1562 43.8087,79.4895 21.5,77.5C 23.6837,73.1189 26.3504,69.1189 29.5,65.5 Z"/></g>
<g><path style="opacity:0.989" fill="#cb9b9b" d="M 279.5,65.5 C 282.579,68.6505 284.913,72.3171 286.5,76.5C 286.414,77.4959 286.748,78.3292 287.5,79C 265.5,79.6667 243.5,79.6667 221.5,79C 219.941,77.2443 218.274,77.2443 216.5,79C 217.381,79.7083 218.047,80.5416 218.5,81.5C 216.251,80.9202 214.585,79.5869 213.5,77.5C 212.883,75.7708 211.883,74.2708 210.5,73C 206.931,71.0583 203.598,68.8916 200.5,66.5C 226.562,66.1932 252.729,66.5265 279,67.5C 279.464,66.9056 279.631,66.2389 279.5,65.5 Z"/></g>
<g><path style="opacity:0.714" fill="#e39387" d="M 200.5,66.5 C 203.598,68.8916 206.931,71.0583 210.5,73C 211.883,74.2708 212.883,75.7708 213.5,77.5C 198.57,67.4147 182.237,61.0814 164.5,58.5C 156.344,57.3434 148.01,57.1768 139.5,58C 135.205,58.569 131.205,59.7356 127.5,61.5C 107.263,68.4516 90.2633,80.1183 76.5,96.5C 75.475,96.1034 75.3083,95.4368 76,94.5C 80.254,89.4056 84.754,84.4056 89.5,79.5C 95.6681,74.9167 102.001,70.5833 108.5,66.5C 116.622,63.109 124.955,60.2757 133.5,58C 156.762,53.5926 179.096,56.426 200.5,66.5 Z"/></g>
<g><path style="opacity:0.475" fill="#e7909e" d="M 164.5,58.5 C 152.04,58.0727 139.707,59.0727 127.5,61.5C 131.205,59.7356 135.205,58.569 139.5,58C 148.01,57.1768 156.344,57.3434 164.5,58.5 Z"/></g>
<g><path style="opacity:0.989" fill="#d19e94" d="M 21.5,77.5 C 43.8087,79.4895 66.4754,80.1562 89.5,79.5C 84.754,84.4056 80.254,89.4056 76,94.5C 75.3083,95.4368 75.475,96.1034 76.5,96.5C 76.573,98.0269 75.9063,99.0269 74.5,99.5C 74.5,98.1667 74.5,96.8333 74.5,95.5C 54.2575,95.1735 34.0908,95.5068 14,96.5C 13.5065,94.8659 13.3398,93.1992 13.5,91.5C 15.7342,86.596 18.4009,81.9293 21.5,77.5 Z"/></g>
<g><path style="opacity:0.989" fill="#d29e93" d="M 286.5,76.5 C 289.578,80.0489 292.078,84.0489 294,88.5C 294.464,87.9056 294.631,87.2389 294.5,86.5C 296.293,88.4261 297.293,90.7594 297.5,93.5C 276.866,95.1736 256.033,96.1736 235,96.5C 233.674,95.2011 232.34,93.8678 231,92.5C 230.536,93.0944 230.369,93.7611 230.5,94.5C 226.528,90.1927 222.528,85.8593 218.5,81.5C 218.047,80.5416 217.381,79.7083 216.5,79C 218.274,77.2443 219.941,77.2443 221.5,79C 243.5,79.6667 265.5,79.6667 287.5,79C 286.748,78.3292 286.414,77.4959 286.5,76.5 Z"/></g>
<g><path style="opacity:0.989" fill="#d8a28c" d="M 297.5,93.5 C 299.403,96.5299 300.737,99.8632 301.5,103.5C 300.988,106.632 300.988,109.965 301.5,113.5C 283.155,113.167 264.821,113.5 246.5,114.5C 245.388,115.265 244.721,116.265 244.5,117.5C 240.601,109.369 235.934,101.703 230.5,94.5C 230.369,93.7611 230.536,93.0944 231,92.5C 232.34,93.8678 233.674,95.2011 235,96.5C 256.033,96.1736 276.866,95.1736 297.5,93.5 Z"/></g>
<g><path style="opacity:0.989" fill="#d8a28c" d="M 13.5,91.5 C 13.3398,93.1992 13.5065,94.8659 14,96.5C 34.0908,95.5068 54.2575,95.1735 74.5,95.5C 74.5,96.8333 74.5,98.1667 74.5,99.5C 71.8299,104.175 69.1633,108.841 66.5,113.5C 66.0527,111.027 65.0527,110.86 63.5,113C 44.8363,113.5 26.1696,113.667 7.5,113.5C 7.80155,110.941 7.46822,108.607 6.5,106.5C 7.06533,102.463 8.39867,98.7966 10.5,95.5C 10.369,96.2389 10.5357,96.9056 11,97.5C 11.8447,95.3885 12.678,93.3885 13.5,91.5 Z"/></g>
<g><path style="opacity:0.989" fill="#dea586" d="M 6.5,106.5 C 7.46822,108.607 7.80155,110.941 7.5,113.5C 26.1696,113.667 44.8363,113.5 63.5,113C 65.0527,110.86 66.0527,111.027 66.5,113.5C 64.4511,118.91 62.4511,124.244 60.5,129.5C 60.6984,127.425 60.8651,125.425 61,123.5C 60.5,124 60,124.5 59.5,125C 41.1667,125.667 22.8333,125.667 4.5,125C 3.87424,124.25 3.37424,123.416 3,122.5C 2.78997,124.058 2.28997,125.391 1.5,126.5C 2.25067,119.497 3.91733,112.83 6.5,106.5 Z"/></g>
<g><path style="opacity:0.989" fill="#dea586" d="M 301.5,103.5 C 304.08,109.142 305.747,115.142 306.5,121.5C 305.732,120.737 305.232,119.737 305,118.5C 304.689,120.556 304.189,122.556 303.5,124.5C 285.509,125.666 267.509,125.833 249.5,125C 249,124.5 248.5,124 248,123.5C 248.135,125.425 248.302,127.425 248.5,129.5C 246.595,125.784 245.261,121.784 244.5,117.5C 244.721,116.265 245.388,115.265 246.5,114.5C 264.821,113.5 283.155,113.167 301.5,113.5C 300.988,109.965 300.988,106.632 301.5,103.5 Z"/></g>
<g><path style="opacity:0.989" fill="#e5a97f" d="M 60.5,129.5 C 57.5903,142.721 56.9237,156.055 58.5,169.5C 56.8818,162.744 56.0485,155.744 56,148.5C 55.6667,149.167 55.3333,149.833 55,150.5C 36.9099,149.508 18.7433,149.174 0.5,149.5C 0.801552,146.941 0.468218,144.607 -0.5,142.5C -0.5,139.167 -0.5,135.833 -0.5,132.5C 0.166667,130.5 0.833333,128.5 1.5,126.5C 2.28997,125.391 2.78997,124.058 3,122.5C 3.37424,123.416 3.87424,124.25 4.5,125C 22.8333,125.667 41.1667,125.667 59.5,125C 60,124.5 60.5,124 61,123.5C 60.8651,125.425 60.6984,127.425 60.5,129.5 Z"/></g>
<g><path style="opacity:0.989" fill="#e5a97f" d="M 306.5,121.5 C 307.393,125.191 308.393,128.858 309.5,132.5C 309.5,135.833 309.5,139.167 309.5,142.5C 308.679,145.641 308.179,148.975 308,152.5C 307.517,151.552 307.351,150.552 307.5,149.5C 289.257,149.826 271.09,149.492 253,148.5C 252.824,152.688 252.324,156.688 251.5,160.5C 251.569,150.055 250.569,139.721 248.5,129.5C 248.302,127.425 248.135,125.425 248,123.5C 248.5,124 249,124.5 249.5,125C 267.509,125.833 285.509,125.666 303.5,124.5C 304.189,122.556 304.689,120.556 305,118.5C 305.232,119.737 305.732,120.737 306.5,121.5 Z"/></g>
<g><path style="opacity:0.989" fill="#f0b173" d="M -0.5,142.5 C 0.468218,144.607 0.801552,146.941 0.5,149.5C 18.7433,149.174 36.9099,149.508 55,150.5C 55.3333,149.833 55.6667,149.167 56,148.5C 56.0485,155.744 56.8818,162.744 58.5,169.5C 61.2923,183.882 66.6256,197.216 74.5,209.5C 72.0297,208.763 69.6964,207.763 67.5,206.5C 67.6709,204.007 66.6709,202.174 64.5,201C 65.6341,199.984 65.3008,199.317 63.5,199C 63.8333,198.667 64.1667,198.333 64.5,198C 63.1667,196 61.8333,194 60.5,192C 60.8333,191.667 61.1667,191.333 61.5,191C 59.3083,185.927 57.6417,180.761 56.5,175.5C 38.8333,175.5 21.1667,175.5 3.5,175.5C 3.75927,183.027 5.42594,189.86 8.5,196C 8.16667,196.333 7.83333,196.667 7.5,197C 8.61227,200.314 9.9456,203.48 11.5,206.5C 10.201,209.068 10.201,212.068 11.5,215.5C 10.0687,214.22 9.40206,212.553 9.5,210.5C 8.40535,205.216 6.73868,200.216 4.5,195.5C 3.56552,194.432 3.23219,193.099 3.5,191.5C 2.25245,183.02 0.919113,174.686 -0.5,166.5C -0.5,158.5 -0.5,150.5 -0.5,142.5 Z"/></g>
<g><path style="opacity:0.989" fill="#efb073" d="M 309.5,142.5 C 309.5,151.5 309.5,160.5 309.5,169.5C 308.593,171.657 307.927,173.99 307.5,176.5C 306.732,177.263 306.232,178.263 306,179.5C 305.51,178.207 305.343,176.873 305.5,175.5C 287.833,175.5 270.167,175.5 252.5,175.5C 249.325,180.517 246.658,185.85 244.5,191.5C 247.938,181.415 250.271,171.081 251.5,160.5C 252.324,156.688 252.824,152.688 253,148.5C 271.09,149.492 289.257,149.826 307.5,149.5C 307.351,150.552 307.517,151.552 308,152.5C 308.179,148.975 308.679,145.641 309.5,142.5 Z"/></g>
<g><path style="opacity:0.69" fill="#e79291" d="M 203.5,141.5 C 206.461,138.796 209.294,139.129 212,142.5C 212.333,146.5 212.667,150.5 213,154.5C 214.323,151.003 216.823,149.336 220.5,149.5C 223.073,149.68 225.24,150.68 227,152.5C 233.158,148.11 238.825,148.777 244,154.5C 244.684,156.479 244.184,158.146 242.5,159.5C 244.104,161.179 244.771,163.179 244.5,165.5C 245.701,168.405 245.534,171.405 244,174.5C 238.772,176.823 233.439,176.156 228,172.5C 226.334,175.379 223.834,176.212 220.5,175C 217.979,172.78 215.812,170.28 214,167.5C 213.417,176.014 209.751,177.681 203,172.5C 199.985,176.861 196.152,177.694 191.5,175C 188.572,172.735 185.405,170.902 182,169.5C 178.268,175.046 173.101,176.879 166.5,175C 163.973,172.473 161.473,169.973 159,167.5C 158.685,176.542 155.185,177.875 148.5,171.5C 147.749,172.376 147.249,173.376 147,174.5C 145.927,173.72 144.76,173.887 143.5,175C 138.167,175.667 132.833,175.667 127.5,175C 125.032,172.772 123.865,169.938 124,166.5C 121.71,172.476 117.377,175.476 111,175.5C 107.661,175.577 104.495,174.91 101.5,173.5C 98.4944,170.305 95.661,167.639 93,165.5C 91.9054,166.693 91.072,168.027 90.5,169.5C 89.8333,169.5 89.5,169.833 89.5,170.5C 89.1667,170.5 88.8333,170.5 88.5,170.5C 90.2455,167.337 91.7455,164.004 93,160.5C 93.3826,161.056 93.8826,161.389 94.5,161.5C 96.4189,166.42 99.7522,170.087 104.5,172.5C 116.849,176.344 123.349,171.678 124,158.5C 123.617,157.944 123.117,157.611 122.5,157.5C 118.146,155.652 113.48,154.985 108.5,155.5C 108.077,157.781 108.744,159.448 110.5,160.5C 111.833,161.833 113.167,163.167 114.5,164.5C 109.583,167.625 105.249,166.958 101.5,162.5C 100.395,154.617 103.729,150.284 111.5,149.5C 112.833,149.833 114.167,150.167 115.5,150.5C 116.85,153.106 118.35,153.106 120,150.5C 120.773,148.648 120.273,147.314 118.5,146.5C 106.518,138.981 98.1851,141.981 93.5,155.5C 92.2719,154.694 91.2719,153.694 90.5,152.5C 88.7695,148.932 86.1028,146.098 82.5,144C 77.2636,142.661 71.9302,142.161 66.5,142.5C 66.1682,152.19 66.5016,161.856 67.5,171.5C 70.4212,172.407 73.4212,172.74 76.5,172.5C 77.2739,173.147 78.2739,173.48 79.5,173.5C 82.1778,172.825 84.8445,172.158 87.5,171.5C 86.0254,173.41 84.0254,174.576 81.5,175C 76.4652,175.384 71.6318,175.551 67,175.5C 65.5441,164.269 65.0441,152.936 65.5,141.5C 70.8437,141.334 76.1771,141.501 81.5,142C 83.6917,142.926 85.6917,144.093 87.5,145.5C 87.5,146.167 87.8333,146.5 88.5,146.5C 88.8333,147.833 89.1667,147.833 89.5,146.5C 91.5492,146.706 91.8825,147.539 90.5,149C 91.2106,150.255 92.044,151.421 93,152.5C 95.9234,143.455 102.09,139.621 111.5,141C 118.692,142.184 122.192,146.351 122,153.5C 122.915,154.328 123.581,155.328 124,156.5C 124.499,151.511 124.666,146.511 124.5,141.5C 130.176,141.334 135.843,141.501 141.5,142C 144.814,143.978 146.981,146.811 148,150.5C 148.181,147.305 148.681,144.305 149.5,141.5C 150.641,139.912 152.141,138.579 154,137.5C 154.98,138.981 156.147,140.315 157.5,141.5C 158.328,146.132 158.828,150.798 159,155.5C 161.343,151.576 164.843,149.576 169.5,149.5C 171.809,150.077 173.976,150.077 176,149.5C 176.915,150.328 177.581,151.328 178,152.5C 178.333,152.167 178.667,151.833 179,151.5C 179.333,152.833 179.667,154.167 180,155.5C 180.576,152.876 181.91,152.209 184,153.5C 190,148.167 196,148.167 202,153.5C 202.176,149.312 202.676,145.312 203.5,141.5 Z M 194.5,159.5 C 197.377,161.846 197.044,162.679 193.5,162C 194.252,161.329 194.586,160.496 194.5,159.5 Z M 169.5,159.5 C 170.833,159.5 172.167,159.5 173.5,159.5C 173.833,163.833 171.833,165.833 167.5,165.5C 167.253,163.142 167.919,161.142 169.5,159.5 Z M 222.5,158.5 C 223.458,158.953 224.292,159.619 225,160.5C 225.333,160.167 225.667,159.833 226,159.5C 226.465,160.931 227.299,162.097 228.5,163C 227.299,163.903 226.465,165.069 226,166.5C 225,165.167 224,165.167 223,166.5C 220.054,163.892 219.888,161.225 222.5,158.5 Z M 134.5,162.5 C 142.237,162.262 142.404,163.262 135,165.5C 134.517,164.552 134.351,163.552 134.5,162.5 Z M 147.5,153.5 C 148.622,155.288 148.789,157.288 148,159.5C 146.559,157.695 146.392,155.695 147.5,153.5 Z M 108.5,151.5 C 110.989,151.298 113.323,151.798 115.5,153C 108.55,151.935 105.55,154.768 106.5,161.5C 108.433,161.729 110.1,162.562 111.5,164C 109.167,163.333 106.833,163.333 104.5,164C 101.549,158.354 102.883,154.187 108.5,151.5 Z M 81.5,153.5 C 81.2627,154.791 81.596,155.791 82.5,156.5C 82.3891,161.066 80.0558,163.733 75.5,164.5C 76.8333,160.167 76.8333,155.833 75.5,151.5C 77.8863,151.259 79.8863,151.925 81.5,153.5 Z"/></g>
<g><path style="opacity:0.996" fill="#f19b40" d="M 179.5,157.5 C 180.966,158.347 181.8,159.68 182,161.5C 182.232,160.263 182.732,159.263 183.5,158.5C 183.5,160.833 183.5,163.167 183.5,165.5C 181.429,168.077 179.096,170.577 176.5,173C 172.938,175.091 169.604,174.924 166.5,172.5C 176.95,172.72 181.283,167.72 179.5,157.5 Z"/></g>
<g><path style="opacity:1" fill="#e3a43a" d="M 223.5,169.5 C 223.833,169.5 224.167,169.5 224.5,169.5C 225.234,170.708 225.567,172.041 225.5,173.5C 223.219,173.923 221.552,173.256 220.5,171.5C 222.179,171.715 223.179,171.048 223.5,169.5 Z"/></g>
<g><path style="opacity:1" fill="#f09d45" d="M 241.5,163.5 C 242.5,164.167 243.5,164.833 244.5,165.5C 244.648,171.188 241.815,174.188 236,174.5C 234.272,174.101 232.772,173.434 231.5,172.5C 236.702,173.114 240.369,171.114 242.5,166.5C 241.873,165.583 241.539,164.583 241.5,163.5 Z"/></g>
<g><path style="opacity:1" fill="#f0a630" d="M 215.5,166.5 C 214.178,166.33 213.011,166.663 212,167.5C 211.505,169.473 211.338,171.473 211.5,173.5C 209.219,173.923 207.552,173.256 206.5,171.5C 206.833,171.5 207.167,171.5 207.5,171.5C 209.024,169.592 210.357,167.425 211.5,165C 213.352,164.227 214.686,164.727 215.5,166.5 Z"/></g>
<g><path style="opacity:0.988" fill="#42f0c7" d="M 179.5,157.5 C 181.283,167.72 176.95,172.72 166.5,172.5C 157.992,166.444 157.326,159.611 164.5,152C 171.081,149.962 176.081,151.795 179.5,157.5 Z M 169.5,159.5 C 167.919,161.142 167.253,163.142 167.5,165.5C 171.833,165.833 173.833,163.833 173.5,159.5C 172.167,159.5 170.833,159.5 169.5,159.5 Z"/></g>
<g><path style="opacity:1" fill="#f3a725" d="M 155.5,143.5 C 157.474,153.111 158.141,163.111 157.5,173.5C 155.585,173.784 153.919,173.451 152.5,172.5C 153.5,172.5 154.5,172.5 155.5,172.5C 155.5,162.833 155.5,153.167 155.5,143.5 Z"/></g>
<g><path style="opacity:0.012" fill="#feaaa9" d="M 90.5,169.5 C 91.7125,170.497 91.5458,171.497 90,172.5C 89.5357,171.906 89.369,171.239 89.5,170.5C 90.1667,170.5 90.5,170.167 90.5,169.5 Z"/></g>
<g><path style="opacity:0.969" fill="#f0954f" d="M 149.5,141.5 C 149.833,141.5 150.167,141.5 150.5,141.5C 150.5,151.167 150.5,160.833 150.5,170.5C 149.732,169.737 149.232,168.737 149,167.5C 145.797,172.578 141.13,174.578 135,173.5C 132.071,173.475 129.571,172.809 127.5,171.5C 132.84,172.891 138.173,172.724 143.5,171C 146.321,168.859 147.654,166.025 147.5,162.5C 148.117,162.611 148.617,162.944 149,163.5C 149.5,156.174 149.666,148.841 149.5,141.5 Z"/></g>
<g><path style="opacity:1" fill="#ee9c43" d="M 90.5,152.5 C 91.2719,153.694 92.2719,154.694 93.5,155.5C 93.5172,157.565 93.8505,159.565 94.5,161.5C 93.8826,161.389 93.3826,161.056 93,160.5C 91.7455,164.004 90.2455,167.337 88.5,170.5C 88.5,171.167 88.1667,171.5 87.5,171.5C 84.8445,172.158 82.1778,172.825 79.5,173.5C 78.2739,173.48 77.2739,173.147 76.5,172.5C 87.5374,170.456 92.204,163.789 90.5,152.5 Z"/></g>
<g><path style="opacity:1" fill="#37e8e1" d="M 209.5,142.5 C 209.5,147.5 209.5,152.5 209.5,157.5C 210.791,157.737 211.791,157.404 212.5,156.5C 214.145,155.521 215.479,154.188 216.5,152.5C 218.396,151.534 220.396,151.201 222.5,151.5C 220.888,154.538 218.888,157.371 216.5,160C 217.066,160.995 217.733,161.828 218.5,162.5C 219.811,165.135 221.478,167.469 223.5,169.5C 223.179,171.048 222.179,171.715 220.5,171.5C 218.548,170.215 216.882,168.549 215.5,166.5C 214.686,164.727 213.352,164.227 211.5,165C 210.357,167.425 209.024,169.592 207.5,171.5C 205.567,162.095 204.9,152.428 205.5,142.5C 206.833,142.5 208.167,142.5 209.5,142.5 Z"/></g>
<g><path style="opacity:1" fill="#56cfab" d="M 204.5,141.5 C 206.415,141.216 208.081,141.549 209.5,142.5C 208.167,142.5 206.833,142.5 205.5,142.5C 204.9,152.428 205.567,162.095 207.5,171.5C 207.167,171.5 206.833,171.5 206.5,171.5C 205.508,171.672 204.842,171.338 204.5,170.5C 204.5,160.833 204.5,151.167 204.5,141.5 Z"/></g>
<g><path style="opacity:0.765" fill="#e78f91" d="M 173.5,158.5 C 175.585,162.856 174.251,165.856 169.5,167.5C 168.261,167.058 167.261,166.391 166.5,165.5C 165.833,160.167 168.167,157.833 173.5,158.5 Z M 169.5,159.5 C 167.919,161.142 167.253,163.142 167.5,165.5C 171.833,165.833 173.833,163.833 173.5,159.5C 172.167,159.5 170.833,159.5 169.5,159.5 Z"/></g>
<g><path style="opacity:0.996" fill="#ef9f3b" d="M 122.5,157.5 C 123.117,157.611 123.617,157.944 124,158.5C 123.349,171.678 116.849,176.344 104.5,172.5C 115.971,174.027 121.971,169.027 122.5,157.5 Z"/></g>
<g><path style="opacity:0.135" fill="#e994a2" d="M 200.5,167.5 C 200.134,166.305 199.301,165.639 198,165.5C 195.347,166.716 192.847,166.716 190.5,165.5C 190.405,158.727 193.571,156.727 200,159.5C 201.261,159.241 202.261,158.574 203,157.5C 203.667,161.5 203.667,165.5 203,169.5C 202.292,168.619 201.458,167.953 200.5,167.5 Z M 194.5,159.5 C 194.586,160.496 194.252,161.329 193.5,162C 197.044,162.679 197.377,161.846 194.5,159.5 Z"/></g>
<g><path style="opacity:1" fill="#f29f3b" d="M 203.5,141.5 C 203.833,141.5 204.167,141.5 204.5,141.5C 204.5,151.167 204.5,160.833 204.5,170.5C 201.922,172.589 198.922,173.923 195.5,174.5C 193.578,174.199 191.912,173.533 190.5,172.5C 193.607,172.649 196.607,172.149 199.5,171C 200.337,169.989 200.67,168.822 200.5,167.5C 201.458,167.953 202.292,168.619 203,169.5C 203.667,165.5 203.667,161.5 203,157.5C 202.261,158.574 201.261,159.241 200,159.5C 193.571,156.727 190.405,158.727 190.5,165.5C 187.347,161.327 188.347,158.327 193.5,156.5C 195.473,157.331 197.473,157.498 199.5,157C 200.252,156.329 200.586,155.496 200.5,154.5C 201.458,154.953 202.292,155.619 203,156.5C 203.499,151.511 203.666,146.511 203.5,141.5 Z M 194.5,159.5 C 194.586,160.496 194.252,161.329 193.5,162C 197.044,162.679 197.377,161.846 194.5,159.5 Z"/></g>
<g><path style="opacity:0.988" fill="#43f39f" d="M 90.5,152.5 C 92.204,163.789 87.5374,170.456 76.5,172.5C 73.4212,172.74 70.4212,172.407 67.5,171.5C 66.5016,161.856 66.1682,152.19 66.5,142.5C 71.9302,142.161 77.2636,142.661 82.5,144C 86.1028,146.098 88.7695,148.932 90.5,152.5 Z M 81.5,153.5 C 81.2627,154.791 81.596,155.791 82.5,156.5C 82.3891,161.066 80.0558,163.733 75.5,164.5C 76.8333,160.167 76.8333,155.833 75.5,151.5C 77.8863,151.259 79.8863,151.925 81.5,153.5 Z"/></g>
<g><path style="opacity:0.992" fill="#ee9a49" d="M 173.5,158.5 C 168.167,157.833 165.833,160.167 166.5,165.5C 164.255,163.583 163.922,161.25 165.5,158.5C 168.323,155.913 170.99,155.913 173.5,158.5 Z"/></g>
<g><path style="opacity:0.165" fill="#e9939c" d="M 79.5,149.5 C 81.371,149.859 82.871,150.859 84,152.5C 86.8753,161.438 83.7087,166.105 74.5,166.5C 74.5,160.833 74.5,155.167 74.5,149.5C 76.1667,149.5 77.8333,149.5 79.5,149.5 Z M 81.5,153.5 C 81.2627,154.791 81.596,155.791 82.5,156.5C 82.3891,161.066 80.0558,163.733 75.5,164.5C 76.8333,160.167 76.8333,155.833 75.5,151.5C 77.8863,151.259 79.8863,151.925 81.5,153.5 Z"/></g>
<g><path style="opacity:0.989" fill="#44ebd1" d="M 200.5,154.5 C 200.586,155.496 200.252,156.329 199.5,157C 197.473,157.498 195.473,157.331 193.5,156.5C 188.347,158.327 187.347,161.327 190.5,165.5C 192.847,166.716 195.347,166.716 198,165.5C 199.301,165.639 200.134,166.305 200.5,167.5C 200.67,168.822 200.337,169.989 199.5,171C 196.607,172.149 193.607,172.649 190.5,172.5C 187.491,170.79 185.158,168.457 183.5,165.5C 183.5,163.167 183.5,160.833 183.5,158.5C 186.28,151.834 191.28,149.667 198.5,152C 199.381,152.708 200.047,153.542 200.5,154.5 Z"/></g>
<g><path style="opacity:0.988" fill="#45f3aa" d="M 118.5,146.5 C 118.262,148.404 117.262,149.738 115.5,150.5C 114.167,150.167 112.833,149.833 111.5,149.5C 104.738,147.568 100.738,150.234 99.5,157.5C 99.8008,159.422 100.467,161.088 101.5,162.5C 105.249,166.958 109.583,167.625 114.5,164.5C 115.434,163.432 115.768,162.099 115.5,160.5C 113.833,160.5 112.167,160.5 110.5,160.5C 108.744,159.448 108.077,157.781 108.5,155.5C 113.48,154.985 118.146,155.652 122.5,157.5C 121.971,169.027 115.971,174.027 104.5,172.5C 99.7522,170.087 96.4189,166.42 94.5,161.5C 93.8505,159.565 93.5172,157.565 93.5,155.5C 98.1851,141.981 106.518,138.981 118.5,146.5 Z"/></g>
<g><path style="opacity:0.984" fill="#eb994b" d="M 110.5,160.5 C 112.167,160.5 113.833,160.5 115.5,160.5C 115.768,162.099 115.434,163.432 114.5,164.5C 113.167,163.167 111.833,161.833 110.5,160.5 Z"/></g>
<g><path style="opacity:0.982" fill="#47ddde" d="M 240.5,153.5 C 240.5,154.5 240.5,155.5 240.5,156.5C 238.599,156.567 236.766,156.233 235,155.5C 232.139,156.482 231.972,157.482 234.5,158.5C 237.327,159.419 239.66,161.086 241.5,163.5C 241.539,164.583 241.873,165.583 242.5,166.5C 240.369,171.114 236.702,173.114 231.5,172.5C 225.688,168.172 226.188,166.505 233,167.5C 234.728,167.546 236.228,167.046 237.5,166C 234.321,164.442 231.321,162.609 228.5,160.5C 226.415,155.004 228.248,151.67 234,150.5C 236.546,150.859 238.713,151.859 240.5,153.5 Z"/></g>
<g><path style="opacity:0.984" fill="#eaa439" d="M 240.5,153.5 C 242.582,154.585 242.916,156.085 241.5,158C 239.038,157.389 236.704,157.555 234.5,158.5C 231.972,157.482 232.139,156.482 235,155.5C 236.766,156.233 238.599,156.567 240.5,156.5C 240.5,155.5 240.5,154.5 240.5,153.5 Z"/></g>
<g><path style="opacity:0.996" fill="#f39f3a" d="M 222.5,151.5 C 223.391,152.261 224.058,153.261 224.5,154.5C 222.066,156.921 220.066,159.588 218.5,162.5C 217.733,161.828 217.066,160.995 216.5,160C 218.888,157.371 220.888,154.538 222.5,151.5 Z"/></g>
<g><path style="opacity:0.988" fill="#42f2b9" d="M 145.5,149.5 C 145.171,151.991 144.171,154.157 142.5,156C 143.044,156.717 143.711,157.217 144.5,157.5C 145.752,159.001 146.752,160.668 147.5,162.5C 147.654,166.025 146.321,168.859 143.5,171C 138.173,172.724 132.84,172.891 127.5,171.5C 126.506,162.014 126.173,152.348 126.5,142.5C 130.846,142.334 135.179,142.501 139.5,143C 142.386,144.385 144.386,146.551 145.5,149.5 Z M 134.5,162.5 C 134.351,163.552 134.517,164.552 135,165.5C 142.404,163.262 142.237,162.262 134.5,162.5 Z"/></g>
<g><path style="opacity:0.51" fill="#e98f8a" d="M 139.5,160.5 C 142.124,162.198 142.124,164.031 139.5,166C 137.527,166.495 135.527,166.662 133.5,166.5C 133.5,164.5 133.5,162.5 133.5,160.5C 135.5,160.5 137.5,160.5 139.5,160.5 Z M 134.5,162.5 C 134.351,163.552 134.517,164.552 135,165.5C 142.404,163.262 142.237,162.262 134.5,162.5 Z"/></g>
<g><path style="opacity:1" fill="#f6aa1b" d="M 139.5,160.5 C 137.5,160.5 135.5,160.5 133.5,160.5C 133.5,162.5 133.5,164.5 133.5,166.5C 131.656,164.721 130.99,162.388 131.5,159.5C 134.385,159.194 137.052,159.527 139.5,160.5 Z"/></g>
<g><path style="opacity:0.988" fill="#2df8cb" d="M 150.5,141.5 C 152.781,141.077 154.448,141.744 155.5,143.5C 155.5,153.167 155.5,162.833 155.5,172.5C 154.5,172.5 153.5,172.5 152.5,172.5C 151.833,171.833 151.167,171.167 150.5,170.5C 150.5,160.833 150.5,151.167 150.5,141.5 Z"/></g>
<g><path style="opacity:1" fill="#eda137" d="M 111.5,149.5 C 103.729,150.284 100.395,154.617 101.5,162.5C 100.467,161.088 99.8008,159.422 99.5,157.5C 100.738,150.234 104.738,147.568 111.5,149.5 Z"/></g>
<g><path style="opacity:1" fill="#f6a430" d="M 145.5,149.5 C 146.926,152.299 146.592,154.966 144.5,157.5C 143.711,157.217 143.044,156.717 142.5,156C 144.171,154.157 145.171,151.991 145.5,149.5 Z"/></g>
<g><path style="opacity:0.296" fill="#de9595" d="M 138.5,152.5 C 137.121,154.597 135.455,154.93 133.5,153.5C 133.5,152.5 133.5,151.5 133.5,150.5C 135.781,150.077 137.448,150.744 138.5,152.5 Z"/></g>
<g><path style="opacity:1" fill="#f7a826" d="M 73.5,148.5 C 75.7354,148.205 77.7354,148.539 79.5,149.5C 77.8333,149.5 76.1667,149.5 74.5,149.5C 74.5,155.167 74.5,160.833 74.5,166.5C 73.8333,166.5 73.1667,166.5 72.5,166.5C 72.1771,160.31 72.5104,154.31 73.5,148.5 Z"/></g>
<g><path style="opacity:0.77" fill="#ef945c" d="M 138.5,152.5 C 137.448,150.744 135.781,150.077 133.5,150.5C 133.5,151.5 133.5,152.5 133.5,153.5C 131.744,152.448 131.077,150.781 131.5,148.5C 133.857,148.337 136.19,148.503 138.5,149C 139.791,150.292 139.791,151.458 138.5,152.5 Z"/></g>
<g><path style="opacity:1" fill="#f39f39" d="M 118.5,146.5 C 120.273,147.314 120.773,148.648 120,150.5C 118.35,153.106 116.85,153.106 115.5,150.5C 117.262,149.738 118.262,148.404 118.5,146.5 Z"/></g>
<g><path style="opacity:1" fill="#f7a81e" d="M 209.5,142.5 C 210.117,142.611 210.617,142.944 211,143.5C 211.175,148.019 211.675,152.353 212.5,156.5C 211.791,157.404 210.791,157.737 209.5,157.5C 209.5,152.5 209.5,147.5 209.5,142.5 Z"/></g>
<g><path style="opacity:0.989" fill="#19fc9a" d="M 73.5,148.5 C 72.5104,154.31 72.1771,160.31 72.5,166.5C 74.3717,168.062 76.7051,169.062 79.5,169.5C 71.3645,173.89 67.6978,171.557 68.5,162.5C 69.5,162.5 70.5,162.5 71.5,162.5C 71.6657,158.154 71.499,153.821 71,149.5C 70.8236,152.882 70.3236,156.215 69.5,159.5C 68.5059,154.544 68.1725,149.544 68.5,144.5C 72.5138,144.334 76.5138,144.501 80.5,145C 77.9165,145.86 75.5832,147.027 73.5,148.5 Z"/></g>
<g><path style="opacity:0.012" fill="#feaaa9" d="M 89.5,146.5 C 89.1667,146.5 88.8333,146.5 88.5,146.5C 87.8333,146.5 87.5,146.167 87.5,145.5C 88.3013,143.207 88.968,143.54 89.5,146.5 Z"/></g>
<g><path style="opacity:0.988" fill="#f6b76c" d="M 307.5,176.5 C 305.777,188.06 303.11,199.394 299.5,210.5C 299.598,212.553 298.931,214.22 297.5,215.5C 297.62,213.801 297.954,212.135 298.5,210.5C 298.182,209.353 297.516,208.519 296.5,208C 299.433,203.287 301.099,198.12 301.5,192.5C 283.497,192.333 265.497,192.5 247.5,193C 244.807,197.69 242.474,202.19 240.5,206.5C 238.747,208.043 236.747,209.043 234.5,209.5C 237.837,203.492 241.17,197.492 244.5,191.5C 246.658,185.85 249.325,180.517 252.5,175.5C 270.167,175.5 287.833,175.5 305.5,175.5C 305.343,176.873 305.51,178.207 306,179.5C 306.232,178.263 306.732,177.263 307.5,176.5 Z"/></g>
<g><path style="opacity:0.455" fill="#e88f96" d="M -0.5,166.5 C 0.919113,174.686 2.25245,183.02 3.5,191.5C 1.91245,186.56 0.579117,181.56 -0.5,176.5C -0.5,173.167 -0.5,169.833 -0.5,166.5 Z"/></g>
<g><path style="opacity:0.259" fill="#e78f94" d="M 309.5,169.5 C 309.5,171.833 309.5,174.167 309.5,176.5C 307.858,184.075 306.024,191.741 304,199.5C 302.962,203.468 301.462,207.135 299.5,210.5C 303.11,199.394 305.777,188.06 307.5,176.5C 307.927,173.99 308.593,171.657 309.5,169.5 Z"/></g>
<g><path style="opacity:0.988" fill="#f6bc6b" d="M 67.5,206.5 C 48.8333,206.5 30.1667,206.5 11.5,206.5C 9.9456,203.48 8.61227,200.314 7.5,197C 7.83333,196.667 8.16667,196.333 8.5,196C 5.42594,189.86 3.75927,183.027 3.5,175.5C 21.1667,175.5 38.8333,175.5 56.5,175.5C 57.6417,180.761 59.3083,185.927 61.5,191C 61.1667,191.333 60.8333,191.667 60.5,192C 61.8333,194 63.1667,196 64.5,198C 64.1667,198.333 63.8333,198.667 63.5,199C 65.3008,199.317 65.6341,199.984 64.5,201C 66.6709,202.174 67.6709,204.007 67.5,206.5 Z"/></g>
<g><path style="opacity:0.455" fill="#e99098" d="M 4.5,195.5 C 6.73868,200.216 8.40535,205.216 9.5,210.5C 6.86048,205.915 5.19382,200.915 4.5,195.5 Z"/></g>
<g><path style="opacity:0.989" fill="#f4c36a" d="M 11.5,206.5 C 30.1667,206.5 48.8333,206.5 67.5,206.5C 69.6964,207.763 72.0297,208.763 74.5,209.5C 75.9063,209.973 76.573,210.973 76.5,212.5C 77.4194,215.089 79.086,217.089 81.5,218.5C 84.1667,220.5 86.5,222.833 88.5,225.5C 86.9139,224.587 85.4139,224.587 84,225.5C 82.4422,223.641 80.6089,222.141 78.5,221C 58.1694,220.5 37.8361,220.333 17.5,220.5C 17.6741,222.861 18.0074,225.194 18.5,227.5C 16.1667,223.5 13.8333,219.5 11.5,215.5C 10.201,212.068 10.201,209.068 11.5,206.5 Z"/></g>
<g><path style="opacity:0.989" fill="#f5c26a" d="M 297.5,215.5 C 295.5,218.833 293.5,222.167 291.5,225.5C 290.587,223.914 290.587,222.414 291.5,221C 271.167,220.333 250.833,220.333 230.5,221C 228.423,222.705 226.09,223.872 223.5,224.5C 225.252,222.754 226.585,220.754 227.5,218.5C 229.587,217.415 230.92,215.749 231.5,213.5C 231.738,211.596 232.738,210.262 234.5,209.5C 236.747,209.043 238.747,208.043 240.5,206.5C 242.474,202.19 244.807,197.69 247.5,193C 265.497,192.5 283.497,192.333 301.5,192.5C 301.099,198.12 299.433,203.287 296.5,208C 297.516,208.519 298.182,209.353 298.5,210.5C 297.954,212.135 297.62,213.801 297.5,215.5 Z"/></g>
<g><path style="opacity:0.624" fill="#e99298" d="M 76.5,212.5 C 78.914,213.911 80.5806,215.911 81.5,218.5C 79.086,217.089 77.4194,215.089 76.5,212.5 Z"/></g>
<g><path style="opacity:0.624" fill="#e9919a" d="M 231.5,213.5 C 230.92,215.749 229.587,217.415 227.5,218.5C 228.08,216.251 229.413,214.585 231.5,213.5 Z"/></g>
<g><path style="opacity:0.989" fill="#f4c969" d="M 88.5,225.5 C 89.865,227.86 91.865,229.527 94.5,230.5C 96.4044,230.738 97.7377,231.738 98.5,233.5C 98.9731,234.906 99.9731,235.573 101.5,235.5C 101.973,236.906 102.973,237.573 104.5,237.5C 105.984,239.074 107.651,240.407 109.5,241.5C 107.5,241.5 105.5,241.5 103.5,241.5C 103.649,240.448 103.483,239.448 103,238.5C 100.872,238.927 98.7053,238.427 96.5,237C 73.1667,236.333 49.8333,236.333 26.5,237C 27.3519,239.433 28.0186,242.266 28.5,245.5C 25.7589,243.025 23.7589,240.025 22.5,236.5C 22.573,234.973 21.9063,233.973 20.5,233.5C 19.6618,233.158 19.3284,232.492 19.5,231.5C 19.1667,230.167 18.8333,228.833 18.5,227.5C 18.0074,225.194 17.6741,222.861 17.5,220.5C 37.8361,220.333 58.1694,220.5 78.5,221C 80.6089,222.141 82.4422,223.641 84,225.5C 85.4139,224.587 86.9139,224.587 88.5,225.5 Z"/></g>
<g><path style="opacity:0.989" fill="#f4c969" d="M 291.5,225.5 C 290.833,227.5 290.167,229.5 289.5,231.5C 289.672,232.492 289.338,233.158 288.5,233.5C 287.094,233.973 286.427,234.973 286.5,236.5C 286.573,238.027 285.906,239.027 284.5,239.5C 283.272,240.306 282.272,241.306 281.5,242.5C 280.62,240.611 280.62,238.611 281.5,236.5C 258.498,236.333 235.498,236.5 212.5,237C 210.167,239.504 207.501,240.004 204.5,238.5C 204.5,238.167 204.5,237.833 204.5,237.5C 206.027,237.573 207.027,236.906 207.5,235.5C 209.147,233.674 211.147,232.34 213.5,231.5C 217.154,229.669 220.487,227.336 223.5,224.5C 226.09,223.872 228.423,222.705 230.5,221C 250.833,220.333 271.167,220.333 291.5,221C 290.587,222.414 290.587,223.914 291.5,225.5 Z"/></g>
<g><path style="opacity:0.894" fill="#eb9987" d="M 227.5,218.5 C 226.585,220.754 225.252,222.754 223.5,224.5C 220.487,227.336 217.154,229.669 213.5,231.5C 218.141,227.195 222.807,222.861 227.5,218.5 Z"/></g>
<g><path style="opacity:0.012" fill="#ec979a" d="M 88.5,225.5 C 91.1092,226.443 93.1092,228.11 94.5,230.5C 91.865,229.527 89.865,227.86 88.5,225.5 Z"/></g>
<g><path style="opacity:0.369" fill="#e8919b" d="M 297.5,215.5 C 295.874,221.419 293.207,226.753 289.5,231.5C 290.167,229.5 290.833,227.5 291.5,225.5C 293.5,222.167 295.5,218.833 297.5,215.5 Z"/></g>
<g><path style="opacity:0.306" fill="#e89199" d="M 11.5,215.5 C 13.8333,219.5 16.1667,223.5 18.5,227.5C 18.8333,228.833 19.1667,230.167 19.5,231.5C 15.7929,226.753 13.1263,221.419 11.5,215.5 Z"/></g>
<g><path style="opacity:0.047" fill="#e8919e" d="M 20.5,233.5 C 21.9063,233.973 22.573,234.973 22.5,236.5C 21.0937,236.027 20.427,235.027 20.5,233.5 Z"/></g>
<g><path style="opacity:0.145" fill="#e48fa4" d="M 98.5,233.5 C 100.027,233.427 101.027,234.094 101.5,235.5C 99.9731,235.573 98.9731,234.906 98.5,233.5 Z"/></g>
<g><path style="opacity:0.047" fill="#e8919f" d="M 288.5,233.5 C 288.573,235.027 287.906,236.027 286.5,236.5C 286.427,234.973 287.094,233.973 288.5,233.5 Z"/></g>
<g><path style="opacity:0.047" fill="#e691a1" d="M 101.5,235.5 C 103.027,235.427 104.027,236.094 104.5,237.5C 102.973,237.573 101.973,236.906 101.5,235.5 Z"/></g>
<g><path style="opacity:0.631" fill="#e68f9b" d="M 207.5,235.5 C 207.027,236.906 206.027,237.573 204.5,237.5C 204.973,236.094 205.973,235.427 207.5,235.5 Z"/></g>
<g><path style="opacity:0.082" fill="#e9929c" d="M 284.5,239.5 C 284.155,242.198 282.822,244.198 280.5,245.5C 280.557,244.391 280.89,243.391 281.5,242.5C 282.272,241.306 283.272,240.306 284.5,239.5 Z"/></g>
<g><path style="opacity:0.989" fill="#f3d067" d="M 109.5,241.5 C 111.746,242.455 114.079,243.122 116.5,243.5C 117.78,244.931 119.447,245.598 121.5,245.5C 131.808,249.887 142.808,251.887 154.5,251.5C 165.382,251.541 176.049,250.041 186.5,247C 187.056,246.617 187.389,246.117 187.5,245.5C 189.553,245.598 191.22,244.931 192.5,243.5C 196.787,242.352 200.787,240.685 204.5,238.5C 207.501,240.004 210.167,239.504 212.5,237C 235.498,236.5 258.498,236.333 281.5,236.5C 280.62,238.611 280.62,240.611 281.5,242.5C 280.89,243.391 280.557,244.391 280.5,245.5C 278.738,246.262 277.738,247.596 277.5,249.5C 275.413,250.585 274.08,252.251 273.5,254.5C 273.5,255.167 273.167,255.5 272.5,255.5C 270.5,257.167 268.5,258.833 266.5,260.5C 267.896,257.249 269.562,254.083 271.5,251C 242.167,250.333 212.833,250.333 183.5,251C 169.934,254.981 156.434,255.814 143,253.5C 137.495,253.903 131.995,253.069 126.5,251C 96.8277,250.167 67.1611,250.333 37.5,251.5C 39.4236,252.965 39.7569,254.632 38.5,256.5C 37.8333,256.167 37.1667,255.833 36.5,255.5C 35.8333,255.5 35.5,255.167 35.5,254.5C 34.9202,252.251 33.5869,250.585 31.5,249.5C 31.2624,247.596 30.2624,246.262 28.5,245.5C 28.0186,242.266 27.3519,239.433 26.5,237C 49.8333,236.333 73.1667,236.333 96.5,237C 98.7053,238.427 100.872,238.927 103,238.5C 103.483,239.448 103.649,240.448 103.5,241.5C 105.5,241.5 107.5,241.5 109.5,241.5 Z"/></g>
<g><path style="opacity:0.369" fill="#e28ea1" d="M 192.5,243.5 C 191.22,244.931 189.553,245.598 187.5,245.5C 188.78,244.069 190.447,243.402 192.5,243.5 Z"/></g>
<g><path style="opacity:0.392" fill="#e690a0" d="M 116.5,243.5 C 118.553,243.402 120.22,244.069 121.5,245.5C 119.447,245.598 117.78,244.931 116.5,243.5 Z"/></g>
<g><path style="opacity:0.322" fill="#e7919c" d="M 104.5,237.5 C 108.818,238.992 112.818,240.992 116.5,243.5C 114.079,243.122 111.746,242.455 109.5,241.5C 107.651,240.407 105.984,239.074 104.5,237.5 Z"/></g>
<g><path style="opacity:0.31" fill="#e89396" d="M 204.5,237.5 C 204.5,237.833 204.5,238.167 204.5,238.5C 200.787,240.685 196.787,242.352 192.5,243.5C 196.182,240.992 200.182,238.992 204.5,237.5 Z"/></g>
<g><path style="opacity:0.035" fill="#e58f9f" d="M 28.5,245.5 C 30.2624,246.262 31.2624,247.596 31.5,249.5C 29.7376,248.738 28.7376,247.404 28.5,245.5 Z"/></g>
<g><path style="opacity:0.035" fill="#e58f9f" d="M 280.5,245.5 C 280.262,247.404 279.262,248.738 277.5,249.5C 277.738,247.596 278.738,246.262 280.5,245.5 Z"/></g>
<g><path style="opacity:0.988" fill="#f2d767" d="M 266.5,260.5 C 263.167,264.5 259.5,268.167 255.5,271.5C 254.829,270.153 254.829,268.986 255.5,268C 187.833,267.333 120.167,267.333 52.5,268C 51.944,268.383 51.6107,268.883 51.5,269.5C 46.8333,265.5 42.5,261.167 38.5,256.5C 39.7569,254.632 39.4236,252.965 37.5,251.5C 67.1611,250.333 96.8277,250.167 126.5,251C 131.995,253.069 137.495,253.903 143,253.5C 156.434,255.814 169.934,254.981 183.5,251C 212.833,250.333 242.167,250.333 271.5,251C 269.562,254.083 267.896,257.249 266.5,260.5 Z"/></g>
<g><path style="opacity:0.208" fill="#e8939c" d="M 121.5,245.5 C 143.5,252.167 165.5,252.167 187.5,245.5C 187.389,246.117 187.056,246.617 186.5,247C 176.049,250.041 165.382,251.541 154.5,251.5C 142.808,251.887 131.808,249.887 121.5,245.5 Z"/></g>
<g><path style="opacity:0.082" fill="#e6909c" d="M 31.5,249.5 C 33.5869,250.585 34.9202,252.251 35.5,254.5C 33.4131,253.415 32.0798,251.749 31.5,249.5 Z"/></g>
<g><path style="opacity:0.082" fill="#e48f9e" d="M 277.5,249.5 C 276.92,251.749 275.587,253.415 273.5,254.5C 274.08,252.251 275.413,250.585 277.5,249.5 Z"/></g>
<g><path style="opacity:0.047" fill="#e89398" d="M 36.5,255.5 C 37.1667,255.833 37.8333,256.167 38.5,256.5C 42.5,261.167 46.8333,265.5 51.5,269.5C 52.1667,270.5 52.8333,271.5 53.5,272.5C 46.8333,267.833 41.1667,262.167 36.5,255.5 Z"/></g>
<g><path style="opacity:0.165" fill="#e9959c" d="M 272.5,255.5 C 267.833,262.167 262.167,267.833 255.5,272.5C 255.5,272.167 255.5,271.833 255.5,271.5C 259.5,268.167 263.167,264.5 266.5,260.5C 268.5,258.833 270.5,257.167 272.5,255.5 Z"/></g>
<g><path style="opacity:0.989" fill="#f2dc66" d="M 255.5,271.5 C 255.5,271.833 255.5,272.167 255.5,272.5C 255.5,273.167 255.167,273.5 254.5,273.5C 252.251,274.08 250.585,275.413 249.5,277.5C 247.596,277.738 246.262,278.738 245.5,280.5C 243.973,280.427 242.973,281.094 242.5,282.5C 240.973,282.427 239.973,283.094 239.5,284.5C 238.833,284.5 238.167,284.5 237.5,284.5C 236.402,283.603 236.402,282.77 237.5,282C 181.929,281.831 126.429,281.331 71,280.5C 73.0607,281.96 74.2273,283.96 74.5,286.5C 73.8333,286.5 73.1667,286.5 72.5,286.5C 72.0269,285.094 71.0269,284.427 69.5,284.5C 69.0269,283.094 68.0269,282.427 66.5,282.5C 66.0269,281.094 65.0269,280.427 63.5,280.5C 62.7377,278.738 61.4044,277.738 59.5,277.5C 58.0892,275.086 56.0892,273.419 53.5,272.5C 52.8333,271.5 52.1667,270.5 51.5,269.5C 51.6107,268.883 51.944,268.383 52.5,268C 120.167,267.333 187.833,267.333 255.5,268C 254.829,268.986 254.829,270.153 255.5,271.5 Z"/></g>
<g><path style="opacity:0.145" fill="#eb95a1" d="M 254.5,273.5 C 253.415,275.587 251.749,276.92 249.5,277.5C 250.585,275.413 252.251,274.08 254.5,273.5 Z"/></g>
<g><path style="opacity:0.518" fill="#e99596" d="M 53.5,272.5 C 56.0892,273.419 58.0892,275.086 59.5,277.5C 56.9108,276.581 54.9108,274.914 53.5,272.5 Z"/></g>
<g><path style="opacity:0.58" fill="#e5909a" d="M 59.5,277.5 C 61.4044,277.738 62.7377,278.738 63.5,280.5C 61.5956,280.262 60.2623,279.262 59.5,277.5 Z"/></g>
<g><path style="opacity:0.102" fill="#e28fa3" d="M 249.5,277.5 C 248.738,279.262 247.404,280.262 245.5,280.5C 246.262,278.738 247.596,277.738 249.5,277.5 Z"/></g>
<g><path style="opacity:0.989" fill="#f0e265" d="M 237.5,284.5 C 237.167,285.167 236.833,285.833 236.5,286.5C 234.326,286.75 232.659,287.75 231.5,289.5C 225.849,291.659 220.516,294.326 215.5,297.5C 213.447,297.402 211.78,298.069 210.5,299.5C 202.401,301.854 194.401,304.187 186.5,306.5C 185.081,307.451 183.415,307.784 181.5,307.5C 175.64,307.717 169.973,308.383 164.5,309.5C 157.833,309.5 151.167,309.5 144.5,309.5C 137.413,307.656 130.08,306.656 122.5,306.5C 114.599,304.187 106.599,301.854 98.5,299.5C 96.8148,297.182 94.4815,296.182 91.5,296.5C 87.8178,293.992 83.8178,291.992 79.5,290.5C 78.5084,290.672 77.8417,290.338 77.5,289.5C 76.6935,288.272 75.6935,287.272 74.5,286.5C 74.2273,283.96 73.0607,281.96 71,280.5C 126.429,281.331 181.929,281.831 237.5,282C 236.402,282.77 236.402,283.603 237.5,284.5 Z"/></g>
<g><path style="opacity:0.475" fill="#e38d9b" d="M 63.5,280.5 C 65.0269,280.427 66.0269,281.094 66.5,282.5C 64.9731,282.573 63.9731,281.906 63.5,280.5 Z"/></g>
<g><path style="opacity:0.071" fill="#e48ea2" d="M 245.5,280.5 C 245.027,281.906 244.027,282.573 242.5,282.5C 242.973,281.094 243.973,280.427 245.5,280.5 Z"/></g>
<g><path style="opacity:0.478" fill="#e79198" d="M 66.5,282.5 C 68.0269,282.427 69.0269,283.094 69.5,284.5C 67.9731,284.573 66.9731,283.906 66.5,282.5 Z"/></g>
<g><path style="opacity:0.082" fill="#e792a0" d="M 242.5,282.5 C 242.027,283.906 241.027,284.573 239.5,284.5C 239.973,283.094 240.973,282.427 242.5,282.5 Z"/></g>
<g><path style="opacity:0.431" fill="#e48f9b" d="M 69.5,284.5 C 71.0269,284.427 72.0269,285.094 72.5,286.5C 70.9731,286.573 69.9731,285.906 69.5,284.5 Z"/></g>
<g><path style="opacity:0.071" fill="#e48fa2" d="M 237.5,284.5 C 238.167,284.5 238.833,284.5 239.5,284.5C 239.027,285.906 238.027,286.573 236.5,286.5C 236.833,285.833 237.167,285.167 237.5,284.5 Z"/></g>
<g><path style="opacity:0.31" fill="#e7919c" d="M 72.5,286.5 C 73.1667,286.5 73.8333,286.5 74.5,286.5C 75.6935,287.272 76.6935,288.272 77.5,289.5C 75.326,289.25 73.6594,288.25 72.5,286.5 Z"/></g>
<g><path style="opacity:0.329" fill="#e6929c" d="M 236.5,286.5 C 235.341,288.25 233.674,289.25 231.5,289.5C 232.659,287.75 234.326,286.75 236.5,286.5 Z"/></g>
<g><path style="opacity:0.306" fill="#e38c9f" d="M 79.5,290.5 C 83.8178,291.992 87.8178,293.992 91.5,296.5C 86.9136,295.54 82.9136,293.54 79.5,290.5 Z"/></g>
<g><path style="opacity:0.306" fill="#e791a1" d="M 231.5,289.5 C 226.753,293.207 221.419,295.874 215.5,297.5C 220.516,294.326 225.849,291.659 231.5,289.5 Z"/></g>
<g><path style="opacity:0.012" fill="#ee9d96" d="M 91.5,296.5 C 94.4815,296.182 96.8148,297.182 98.5,299.5C 95.7594,299.293 93.4261,298.293 91.5,296.5 Z"/></g>
<g><path style="opacity:0.216" fill="#e48fa2" d="M 215.5,297.5 C 214.22,298.931 212.553,299.598 210.5,299.5C 211.78,298.069 213.447,297.402 215.5,297.5 Z"/></g>
<g><path style="opacity:0.286" fill="#e892a0" d="M 98.5,299.5 C 106.599,301.854 114.599,304.187 122.5,306.5C 113.952,305.7 105.952,303.367 98.5,299.5 Z"/></g>
<g><path style="opacity:0.133" fill="#e892a0" d="M 210.5,299.5 C 203.048,303.367 195.048,305.7 186.5,306.5C 194.401,304.187 202.401,301.854 210.5,299.5 Z"/></g>
<g><path style="opacity:0.369" fill="#e99a92" d="M 122.5,306.5 C 130.08,306.656 137.413,307.656 144.5,309.5C 140.5,309.5 136.5,309.5 132.5,309.5C 129.167,308.5 125.833,307.5 122.5,306.5 Z"/></g>
<g><path style="opacity:0.059" fill="#e58fa0" d="M 181.5,307.5 C 179.833,308.167 178.167,308.833 176.5,309.5C 172.5,309.5 168.5,309.5 164.5,309.5C 169.973,308.383 175.64,307.717 181.5,307.5 Z"/></g>
</svg>
